# xmcd
#
# Track frame offsets:
#	150
#	11157
#	19775
#	42247
#	54805
#	75625
#	90280
#	103467
#	114235
#	126432
#	137087
#	148400
#	163100
#	169037
#	177527
#	184122
#	191852
#	207445
#
# Disc length: 2950 seconds
#
# Revision: 1
# Processed by: cddbd v1.5.1PL0 Copyright (c) Steve Scherf et al.
# Submitted via: CDex 1.50Beta5
#
DISCID=030b8412
DTITLE=Lady Q and シスタK - サイボーグ クロちゃん 最強うちまくり音楽大図鑑 ・ オリジナル・サウンド・トラック
DYEAR=2000
DGENRE=Anime
TTITLE0=Lady Q/オープニング・テーマ ぐるぐるクロちゃん
TTITLE1=坂本千夏/クロちゃんおんど
TTITLE2=若草　恵/おひるねクロちゃん
TTITLE3=若草　恵/ドジってこけてごあいきょう
TTITLE4=若草　恵/何やら怪しげ・・・
TTITLE5=若草　恵/麦層クロちゃん
TTITLE6=若草　恵/ヨレヨレだよ・・・・でも負けねぇ!
TTITLE7=若草　恵/合体!クロ and ミー
TTITLE8=若草　恵/プーリィ、オ・オイラ
TTITLE9=若草　恵/シブイぜミーくん、泣くなよ剛くん
TTITLE10=若草　恵/リリィ、ぼくは・・・
TTITLE11=若草　恵/静かだよねー
TTITLE12=若草　恵/ブキミだぜ
TTITLE13=若草　恵/笑っちゃうよな
TTITLE14=Lady Q/ぐるぐるクロちゃん(インストバージョン)
TTITLE15=シスタK/ポジティブ ヴァイブレーション(インストバージョン)
TTITLE16=網掛裕美/ナナのラブソング
TTITLE17=シスタK/エンディング・テーマ ポジティブ ヴァイブレーション
EXTD=
EXTT0=
EXTT1=
EXTT2=
EXTT3=
EXTT4=
EXTT5=
EXTT6=
EXTT7=
EXTT8=
EXTT9=
EXTT10=
EXTT11=
EXTT12=
EXTT13=
EXTT14=
EXTT15=
EXTT16=
EXTT17=
PLAYORDER=
